PathFileType	4	(x/y/z)	S09_M20_T19
DataRate	CameraRate	NumFrames	NumMarkers	Units	OrigDataRate	OrigDataStartFrame	OrigNumFrames
240	240	7	51	mm	240	418	556
Frame#	Time	Sternum			R.Acromium			L.Acromium			Top.Head			R.ASIS			L.ASIS			R.PSIS			L.PSIS			R.Great.Tro			L.Great.Tro			R.Iliac.Crest			L.Iliac.Crest			V.Sacral			R.Thigh.Upper.Post			R.Thigh.Lower.Ant			R.Thigh.Lower.Post			R.Thigh.Upper.Ant			R.Knee.Lat			R.Knee.Med			R.Shank.Upper.Post			R.Shank.Lower.Ant			R.Shank.Lower.Post			R.Shank.Upper.Ant			R.Ankle.Lat			R.Ankle.Med			R.Heel.Upper			R.Heel.Med			R.Heel.Lat			R.Toe.Lat			R.Toe.Med			R.Toe.Tip			L.Thigh.Upper.Post			L.Thigh.Lower.Ant			L.Thigh.Lower.Post			L.Thigh.Upper.Ant			L.Knee.Lat			L.Knee.Med			L.Shank.Upper.Post			L.Shank.Lower.Ant			L.Shank.Lower.Post			L.Shank.Upper.Ant			L.Ankle.Lat			L.Ankle.Med			L.Heel.Upper			L.Heel.Med			L.Heel.Lat			L.Toe.Lat			L.Toe.Med			L.Toe.Tip			Cervical.Spine			Back			
		X1	Y1	Z1	X2	Y2	Z2	X3	Y3	Z3	X4	Y4	Z4	X5	Y5	Z5	X6	Y6	Z6	X7	Y7	Z7	X8	Y8	Z8	X9	Y9	Z9	X10	Y10	Z10	X11	Y11	Z11	X12	Y12	Z12	X13	Y13	Z13	X14	Y14	Z14	X15	Y15	Z15	X16	Y16	Z16	X17	Y17	Z17	X18	Y18	Z18	X19	Y19	Z19	X20	Y20	Z20	X21	Y21	Z21	X22	Y22	Z22	X23	Y23	Z23	X24	Y24	Z24	X25	Y25	Z25	X26	Y26	Z26	X27	Y27	Z27	X28	Y28	Z28	X29	Y29	Z29	X30	Y30	Z30	X31	Y31	Z31	X32	Y32	Z32	X33	Y33	Z33	X34	Y34	Z34	X35	Y35	Z35	X36	Y36	Z36	X37	Y37	Z37	X38	Y38	Z38	X39	Y39	Z39	X40	Y40	Z40	X41	Y41	Z41	X42	Y42	Z42	X43	Y43	Z43	X44	Y44	Z44	X45	Y45	Z45	X46	Y46	Z46	X47	Y47	Z47	X48	Y48	Z48	X49	Y49	Z49	X50	Y50	Z50	X51	Y51	Z51	

418	1.7375	1414.2	1186.4	262.3	1263.2	1428.1	402.39	1256.6	1415.7	91.625	1233.4	1715.9	221.37	1372	1003.8	374.13	1390.4	1022	128.29	1157.4	1021.6	276.98	1170.8	1030.6	187.79	1285.1	906.49	433.45	1339.4	929.88	51.71	1276	1075.4	413.07	1277.2	1110	86.577	1146.1	991.16	223.11	1317.8	661.52	431.18	1403.9	566.51	415.33	1324.7	568.25	414.01	1390	655.34	430.59	1374.5	485.46	412.87	1388.6	468.41	288.74	1202.4	423.69	401.83	1197.4	332.45	396.61	1142.4	377.99	387.5	1251.4	381.02	411.51	1010.4	247.65	362	1053.4	222.12	283.61	973.86	283.3	295.21	959.14	254.24	264.71	941.32	267.57	325.8	1001.1	132.57	406.54	1055.7	89.353	318.74	1082.3	62.211	372.65	1324.8	659.16	103.86	1423.5	582.78	122.94	1354.8	577.05	131.36	1396.6	662.32	91.621	1420.1	503.59	137.47	1423.1	526.1	270.23	1374.4	370.8	127.51	1435.9	281.12	149.82	1373	294.05	136.52	1435.9	358.92	140.82	1384	100.66	167.38	1398.8	97.291	261.57	1317.9	67.609	222.12	1331.8	44.938	254.66	1317.3	38.2	195.58	1485.4	46.112	135.37	1527.3	54.498	242.28	1571.6	79.086	181.33	1177.2	1464.2	256.49	1150.8	1191.6	247.79
419	1.7417	1418.5	1187.3	262.14	1267.8	1428.9	402.18	1261.7	1416.9	91.466	1238.5	1716.9	221.55	1376.3	1004.9	373.74	1394.4	1022.7	127.88	1161.6	1022.6	277	1174.9	1031.5	187.74	1289.9	907.69	433.32	1343.2	930.48	51.467	1280.4	1076.5	412.85	1281.4	1110.7	86.243	1150.2	992.1	223.16	1325.7	662.92	431.4	1412.9	568.97	415.19	1333.7	569.72	414.3	1398	657.62	430.54	1384.4	487.5	412.79	1398.3	470.62	288.6	1212.8	423.88	401.87	1208.9	332.56	396.81	1153.3	377.46	387.74	1262.3	381.8	411.53	1022.7	245.65	362.42	1066	220.56	284.02	985.07	280.06	295.51	970.85	250.42	265.31	953.02	263.85	326.37	1016.3	130.94	407.91	1071.6	88.242	320.16	1099.1	62.239	374.17	1326.9	659.87	103.74	1425.1	582.81	122.72	1356.4	577.55	131.22	1398.8	662.54	91.501	1421.5	503.62	137.28	1424.6	526.13	269.99	1375.2	370.84	127.32	1436.5	281.02	149.73	1373.6	294.1	136.42	1436.7	358.82	140.67	1384.1	100.68	167.4	1398.9	97.308	261.55	1317.9	67.66	222.16	1331.8	44.965	254.67	1317.3	38.256	195.59	1485.4	46.012	135.29	1527.4	54.308	242.24	1571.7	78.823	181.3	1182	1465.3	256.24	1155.2	1192.8	247.19
420	1.7458	1422.8	1188.1	261.97	1272.4	1429.7	401.98	1266.7	1418.1	91.314	1243.7	1717.9	221.75	1380.7	1006.1	373.32	1398.4	1023.4	127.42	1165.8	1023.5	277.05	1179	1032.3	187.73	1294.6	908.89	433.22	1347	931.06	51.203	1284.9	1077.7	412.62	1285.6	1111.4	85.919	1154.3	992.98	223.26	1333.5	664.34	431.62	1421.7	571.47	415.02	1342.5	571.22	414.58	1405.9	659.91	430.48	1394.2	489.58	412.69	1407.9	472.86	288.45	1223.1	424.03	401.87	1220.3	332.65	397.02	1164.2	376.86	387.93	1273.2	382.58	411.55	1035.2	243.45	362.87	1078.8	218.84	284.44	996.43	276.6	295.86	982.72	246.4	265.95	964.88	259.91	327	1031.7	129.17	409.26	1087.6	87.05	321.53	1115.9	62.199	375.62	1328.9	660.58	103.64	1426.7	582.83	122.49	1358	578.04	131.09	1400.9	662.75	91.377	1422.7	503.65	137.09	1426.1	526.16	269.74	1376	370.88	127.14	1437	280.93	149.62	1374.2	294.16	136.32	1437.4	358.72	140.52	1384.2	100.7	167.42	1399	97.325	261.53	1317.9	67.714	222.2	1331.8	44.991	254.68	1317.4	38.316	195.59	1485.5	45.908	135.21	1527.5	54.108	242.21	1571.7	78.547	181.28	1186.8	1466.4	256	1159.5	1194	246.61
421	1.75	1427.1	1188.9	261.81	1276.9	1430.4	401.78	1271.7	1419.3	91.17	1248.9	1718.9	221.97	1385	1007.3	372.86	1402.3	1024.2	126.94	1170.1	1024.3	277.13	1183.1	1033.1	187.75	1299.4	910.1	433.14	1350.7	931.61	50.918	1289.5	1078.8	412.38	1289.7	1112.1	85.605	1158.4	993.79	223.39	1341.3	665.79	431.83	1430.5	573.99	414.83	1351.3	572.75	414.82	1413.8	662.22	430.4	1403.9	491.71	412.56	1417.4	475.12	288.3	1233.4	424.15	401.81	1231.8	332.72	397.24	1175.1	376.19	388.08	1284	383.36	411.57	1047.8	241.07	363.33	1091.7	216.97	284.88	1007.9	272.91	296.26	994.75	242.19	266.63	976.9	255.76	327.67	1047.3	127.29	410.58	1103.7	85.786	322.87	1132.9	62.101	377.01	1330.9	661.28	103.57	1428.2	582.84	122.25	1359.6	578.54	130.99	1403	662.95	91.249	1423.9	503.67	136.88	1427.7	526.18	269.48	1376.8	370.92	126.98	1437.6	280.84	149.51	1374.8	294.21	136.23	1438.2	358.62	140.35	1384.3	100.71	167.44	1399.2	97.341	261.52	1317.9	67.772	222.26	1331.8	45.018	254.69	1317.4	38.38	195.6	1485.5	45.801	135.13	1527.5	53.896	242.17	1571.8	78.256	181.25	1191.6	1467.5	255.75	1163.9	1195.2	246.06
422	1.7542	1431.4	1189.8	261.63	1281.4	1431.2	401.6	1276.7	1420.5	91.035	1254.1	1719.9	222.19	1389.4	1008.4	372.37	1406.3	1024.8	126.41	1174.3	1025.1	277.24	1187.2	1033.8	187.81	1304.2	911.32	433.1	1354.4	932.13	50.617	1294	1079.9	412.14	1293.9	1112.8	85.302	1162.6	994.55	223.55	1349	667.25	432.04	1439.2	576.53	414.62	1360	574.32	415.05	1421.5	664.54	430.31	1413.5	493.87	412.42	1426.8	477.4	288.13	1243.6	424.22	401.7	1243.2	332.76	397.46	1185.9	375.46	388.18	1294.7	384.15	411.57	1060.5	238.51	363.8	1104.7	214.95	285.32	1019.5	269.02	296.69	1006.9	237.79	267.34	989.08	251.4	328.39	1062.9	125.29	411.88	1119.9	84.458	324.16	1149.9	61.956	378.33	1332.9	661.98	103.53	1429.7	582.84	121.99	1361.1	579.03	130.9	1405.1	663.13	91.115	1425.1	503.68	136.67	1429.2	526.19	269.2	1377.5	370.96	126.83	1438.1	280.75	149.38	1375.4	294.27	136.16	1438.9	358.52	140.18	1384.4	100.72	167.46	1399.3	97.356	261.5	1318	67.834	222.32	1331.8	45.045	254.7	1317.4	38.448	195.61	1485.6	45.692	135.05	1527.6	53.673	242.14	1571.9	77.951	181.22	1196.4	1468.6	255.51	1168.2	1196.3	245.52
423	1.7583	1435.7	1190.6	261.45	1285.9	1431.9	401.43	1281.7	1421.6	90.907	1259.2	1720.8	222.42	1393.8	1009.5	371.84	1410.1	1025.5	125.86	1178.5	1025.9	277.36	1191.2	1034.5	187.88	1309	912.54	433.08	1358	932.62	50.302	1298.5	1081.1	411.87	1297.9	1113.4	85.008	1166.7	995.25	223.73	1356.7	668.73	432.25	1447.7	579.08	414.39	1368.6	575.91	415.24	1429.2	666.87	430.21	1422.9	496.05	412.26	1436.1	479.7	287.95	1253.8	424.25	401.55	1254.6	332.78	397.69	1196.8	374.65	388.23	1305.4	384.93	411.57	1073.4	235.78	364.29	1117.8	212.79	285.77	1031.3	264.91	297.15	1019.3	233.21	268.07	1001.4	246.85	329.15	1078.8	123.2	413.16	1136.2	83.077	325.43	1167.1	61.777	379.61	1334.8	662.66	103.51	1431.2	582.83	121.72	1362.6	579.51	130.83	1407.1	663.3	90.974	1426.3	503.68	136.44	1430.7	526.18	268.92	1378.2	371	126.71	1438.6	280.66	149.23	1375.9	294.33	136.09	1439.6	358.43	140	1384.5	100.73	167.49	1399.4	97.369	261.49	1318	67.9	222.39	1331.8	45.071	254.71	1317.4	38.522	195.61	1485.6	45.582	134.97	1527.7	53.439	242.11	1572	77.632	181.19	1201.1	1469.6	255.27	1172.6	1197.4	245.01
424	1.7625	1440	1191.3	261.27	1290.4	1432.6	401.28	1286.7	1422.7	90.789	1264.4	1721.7	222.67	1398.2	1010.6	371.28	1414	1026.1	125.28	1182.7	1026.6	277.51	1195.2	1035.2	187.98	1313.9	913.76	433.08	1361.6	933.07	49.976	1303.1	1082.2	411.6	1302	1114	84.723	1170.8	995.89	223.94	1364.2	670.21	432.46	1456.2	581.63	414.14	1377.2	577.53	415.41	1436.7	669.2	430.09	1432.3	498.26	412.08	1445.3	482.01	287.77	1263.9	424.23	401.35	1266	332.77	397.92	1207.6	373.77	388.24	1316.1	385.7	411.55	1086.3	232.89	364.79	1131	210.5	286.22	1043.2	260.61	297.64	1031.8	228.45	268.83	1013.9	242.11	329.94	1094.7	121.02	414.43	1152.7	81.65	326.66	1184.4	61.574	380.84	1336.7	663.34	103.53	1432.7	582.81	121.43	1364	580	130.78	1409.1	663.46	90.828	1427.4	503.68	136.21	1432.3	526.17	268.62	1378.9	371.04	126.6	1439.1	280.57	149.06	1376.4	294.38	136.04	1440.2	358.33	139.8	1384.7	100.74	167.51	1399.6	97.38	261.47	1318	67.969	222.47	1331.8	45.097	254.72	1317.4	38.601	195.61	1485.6	45.47	134.88	1527.7	53.195	242.08	1572.1	77.301	181.17	1205.9	1470.5	255.05	1176.9	1198.5	244.51
